<svg xmlns="http://www.w3.org/2000/svg" viewBox="0 0 1200 630">
  <rect width="1200" height="630" fill="#f2f5f7"/>
  <circle cx="1060" cy="110" r="190" fill="#e4f7d2"/>
  <circle cx="140" cy="560" r="170" fill="#e4f7d2"/>
  <!-- grid -->
  <g stroke="#e4e9ec" stroke-width="3">
    <line x1="160" y1="140" x2="160" y2="520"/>
    <line x1="160" y1="520" x2="1040" y2="520"/>
  </g>
  <!-- compounding curve -->
  <path d="M160 510 C420 500 640 470 780 380 C880 315 960 215 1010 130"
        fill="none" stroke="#163300" stroke-width="16" stroke-linecap="round"/>
  <!-- area -->
  <path d="M160 510 C420 500 640 470 780 380 C880 315 960 215 1010 130 L1010 520 L160 520 Z"
        fill="#9fe870" opacity="0.55"/>
  <!-- coins along curve -->
  <g>
    <circle cx="340" cy="498" r="26" fill="#163300"/>
    <circle cx="600" cy="462" r="36" fill="#163300"/>
    <circle cx="820" cy="350" r="48" fill="#163300"/>
    <text x="340" y="508" text-anchor="middle" font-family="Arial, sans-serif" font-size="26" font-weight="800" fill="#9fe870">฿</text>
    <text x="600" y="475" text-anchor="middle" font-family="Arial, sans-serif" font-size="36" font-weight="800" fill="#9fe870">฿</text>
    <text x="820" y="367" text-anchor="middle" font-family="Arial, sans-serif" font-size="48" font-weight="800" fill="#9fe870">฿</text>
  </g>
  <!-- arrow head -->
  <path d="M1010 130 L948 142 M1010 130 L996 192" stroke="#163300" stroke-width="16" stroke-linecap="round"/>
</svg>
