<svg viewBox="0 0 1200 630" xmlns="http://www.w3.org/2000/svg" font-family="Arial, sans-serif">
<rect width="1200" height="630" fill="#f2f5f7"/>
<circle cx="170" cy="120" r="90" fill="#e4f7d2"/>
<circle cx="1050" cy="520" r="120" fill="#e4f7d2"/>
<circle cx="980" cy="120" r="46" fill="#9fe870" opacity="0.5"/>
<text x="90" y="150" font-size="30" font-weight="700" fill="#5d7079">ภาษีเงินได้บุคคลธรรมดา</text>
<text x="90" y="210" font-size="56" font-weight="800" fill="#163300">คำนวณขั้นบันได</text>
<text x="90" y="270" font-size="32" font-weight="700" fill="#0d7a3f">5% &#8594; 35% ทีละชั้น</text>
<g>
<rect x="250" y="500" width="150" height="60" rx="8" fill="#0d7a3f"/>
<rect x="250" y="470" width="150" height="30" fill="#163300"/>
<circle cx="325" cy="455" r="22" fill="#9fe870"/>
<text x="325" y="463" font-size="22" font-weight="800" fill="#163300" text-anchor="middle">5</text>
<rect x="420" y="430" width="150" height="130" rx="8" fill="#0d7a3f"/>
<rect x="420" y="400" width="150" height="30" fill="#163300"/>
<circle cx="495" cy="385" r="22" fill="#9fe870"/>
<text x="495" y="393" font-size="22" font-weight="800" fill="#163300" text-anchor="middle">10</text>
<circle cx="495" cy="490" r="30" fill="#9fe870"/>
<text x="495" y="502" font-size="34" font-weight="800" fill="#163300" text-anchor="middle">&#3647;</text>
<rect x="590" y="350" width="150" height="210" rx="8" fill="#0d7a3f"/>
<rect x="590" y="320" width="150" height="30" fill="#163300"/>
<circle cx="665" cy="305" r="24" fill="#9fe870"/>
<text x="665" y="314" font-size="24" font-weight="800" fill="#163300" text-anchor="middle">20</text>
<rect x="760" y="250" width="150" height="310" rx="8" fill="#0d7a3f"/>
<rect x="760" y="220" width="150" height="30" fill="#163300"/>
<circle cx="835" cy="205" r="26" fill="#9fe870"/>
<text x="835" y="215" font-size="26" font-weight="800" fill="#163300" text-anchor="middle">35</text>
</g>
<rect x="90" y="575" width="44" height="22" rx="4" fill="#9fe870"/>
<text x="148" y="592" font-size="22" font-weight="700" fill="#5d7079">Wealth Compass</text>
</svg>
