<svg xmlns="http://www.w3.org/2000/svg" viewBox="0 0 1200 630">
  <rect width="1200" height="630" fill="#f2f5f7"/>
  <circle cx="1060" cy="120" r="200" fill="#e4f7d2"/>
  <circle cx="180" cy="540" r="140" fill="#e4f7d2"/>
  <!-- house -->
  <g transform="translate(600,300)">
    <path d="M-150 -30 L0 -150 L150 -30 Z" fill="#163300"/>
    <rect x="-110" y="-30" width="220" height="170" rx="10" fill="#ffffff" stroke="#163300" stroke-width="6"/>
    <rect x="-34" y="40" width="68" height="100" rx="6" fill="#0d7a3f"/>
    <rect x="-92" y="-8" width="44" height="44" rx="5" fill="#e4f7d2"/>
    <rect x="48" y="-8" width="44" height="44" rx="5" fill="#e4f7d2"/>
    <!-- refresh arrows circling the house -->
    <path d="M-205 -40 A205 205 0 0 1 150 -135" fill="none" stroke="#9fe870" stroke-width="22" stroke-linecap="round"/>
    <path d="M150 -135 l38 -8 l-22 34 Z" fill="#9fe870"/>
    <path d="M205 40 A205 205 0 0 1 -150 135" fill="none" stroke="#9fe870" stroke-width="22" stroke-linecap="round"/>
    <path d="M-150 135 l-38 8 l22 -34 Z" fill="#9fe870"/>
  </g>
  <!-- %down pill -->
  <g transform="translate(600,560)">
    <rect x="-95" y="-34" width="190" height="64" rx="32" fill="#9fe870"/>
    <text x="0" y="12" font-family="Arial" font-size="40" font-weight="700" fill="#163300" text-anchor="middle">% &#8595;</text>
  </g>
  <text x="600" y="50" font-family="Arial" font-size="30" font-weight="700" fill="#5d7079" text-anchor="middle">REFINANCE</text>
</svg>
