<svg xmlns="http://www.w3.org/2000/svg" viewBox="0 0 1200 630">
  <rect width="1200" height="630" fill="#f2f5f7"/>
  <circle cx="1010" cy="110" r="220" fill="#e4f7d2"/>
  <circle cx="150" cy="560" r="170" fill="#e4f7d2"/>
  <!-- sun behind building -->
  <circle cx="600" cy="300" r="200" fill="#9fe870"/>
  <!-- government building -->
  <g fill="#163300">
    <!-- pediment -->
    <path d="M600 116 L778 204 L422 204 Z"/>
    <!-- architrave -->
    <rect x="436" y="216" width="328" height="30" rx="4"/>
    <!-- 4 columns -->
    <rect x="464" y="262" width="34" height="180" rx="4"/>
    <rect x="543" y="262" width="34" height="180" rx="4"/>
    <rect x="622" y="262" width="34" height="180" rx="4"/>
    <rect x="701" y="262" width="34" height="180" rx="4"/>
    <!-- stylobate -->
    <rect x="430" y="456" width="340" height="28" rx="4"/>
  </g>
  <!-- steps -->
  <g fill="#0d7a3f">
    <rect x="406" y="494" width="388" height="24" rx="4"/>
    <rect x="380" y="528" width="440" height="24" rx="4"/>
  </g>
  <!-- pill badge -->
  <g transform="translate(940,480)">
    <rect x="-92" y="-46" width="184" height="92" rx="46" fill="#9fe870"/>
    <text x="0" y="17" text-anchor="middle" font-family="Arial, sans-serif" font-size="48" font-weight="800" fill="#163300">20%+</text>
  </g>
</svg>
