<svg xmlns="http://www.w3.org/2000/svg" viewBox="0 0 1200 630">
  <rect width="1200" height="630" fill="#163300"/>
  <circle cx="1050" cy="80" r="200" fill="#1d4400"/>
  <circle cx="100" cy="580" r="170" fill="#1d4400"/>
  <!-- receipt -->
  <g transform="translate(420,90) rotate(4)">
    <path d="M0 0 H360 V420 L330 395 L300 420 L270 395 L240 420 L210 395 L180 420 L150 395 L120 420 L90 395 L60 420 L30 395 L0 420 Z" fill="#ffffff"/>
    <rect x="40" y="48" width="200" height="22" rx="11" fill="#163300"/>
    <rect x="40" y="100" width="280" height="14" rx="7" fill="#e4e9ec"/>
    <rect x="40" y="132" width="280" height="14" rx="7" fill="#e4e9ec"/>
    <rect x="40" y="164" width="220" height="14" rx="7" fill="#e4e9ec"/>
    <rect x="40" y="216" width="280" height="3" fill="#163300"/>
    <rect x="40" y="240" width="120" height="18" rx="9" fill="#0d7a3f"/>
    <rect x="220" y="240" width="100" height="18" rx="9" fill="#9fe870"/>
    <rect x="40" y="284" width="140" height="18" rx="9" fill="#e4e9ec"/>
    <rect x="220" y="284" width="100" height="18" rx="9" fill="#9fe870"/>
  </g>
  <!-- percent badge -->
  <g transform="translate(840,420)">
    <circle r="110" fill="#9fe870"/>
    <text x="0" y="28" text-anchor="middle" font-family="Arial, sans-serif" font-size="84" font-weight="800" fill="#163300">%</text>
  </g>
  <!-- coin -->
  <circle cx="280" cy="200" r="64" fill="#9fe870"/>
  <circle cx="280" cy="200" r="46" fill="none" stroke="#163300" stroke-width="6"/>
  <text x="280" y="219" text-anchor="middle" font-family="Arial, sans-serif" font-size="52" font-weight="800" fill="#163300">฿</text>
</svg>
